<svg width="214" height="68" viewBox="0 0 214 68" fill="none" xmlns="http://www.w3.org/2000/svg">
<path d="M63.6235 4.5692H71.4977C72.6775 4.5692 73.7436 4.81815 74.6961 5.31603C75.6594 5.8031 76.4225 6.51746 76.9853 7.45911C77.5482 8.40077 77.8296 9.54266 77.8296 10.8848C77.8296 12.2161 77.5752 13.3147 77.0665 14.1806C76.5578 15.0465 75.9463 15.6959 75.2319 16.1288C74.5175 16.5618 73.8519 16.8053 73.2349 16.8594L78.5115 26H74.6637L69.793 17.1192H67.033V26H63.6235V4.5692ZM67.033 14.6514H70.2801C71.4274 14.6514 72.3907 14.3646 73.17 13.7909C73.9493 13.2173 74.3389 12.281 74.3389 10.9822C74.3389 9.67255 73.9547 8.74172 73.1862 8.18971C72.4177 7.63771 71.4599 7.3617 70.3126 7.3617H67.033V14.6514ZM84.3539 20.1552C84.3756 20.8588 84.5433 21.492 84.8572 22.0548C85.1711 22.6176 85.6311 23.0614 86.2372 23.3861C86.8542 23.7 87.6064 23.8569 88.494 23.8569C89.2625 23.8569 89.9227 23.7541 90.4747 23.5484C91.0375 23.332 91.5029 23.0776 91.8709 22.7854C92.239 22.4823 92.5095 22.2009 92.6827 21.9411L94.2251 24.0355C93.8896 24.4901 93.4674 24.896 92.9587 25.2532C92.45 25.6103 91.8168 25.8864 91.0592 26.0812C90.3123 26.2868 89.3869 26.3897 88.2829 26.3897C86.8325 26.3897 85.5716 26.092 84.5001 25.4967C83.4285 24.9014 82.5951 24.0626 81.9998 22.9802C81.4153 21.8978 81.1231 20.6315 81.1231 19.1811C81.1231 17.8823 81.3937 16.7133 81.9349 15.6743C82.476 14.6244 83.2607 13.7964 84.289 13.1902C85.3281 12.5841 86.5728 12.281 88.0231 12.281C89.3761 12.281 90.5505 12.5516 91.5462 13.0928C92.542 13.634 93.3105 14.4133 93.8517 15.4307C94.4037 16.4373 94.6797 17.655 94.6797 19.0837C94.6797 19.1703 94.6743 19.3489 94.6634 19.6195C94.6634 19.8901 94.6526 20.0686 94.631 20.1552H84.3539ZM91.4326 17.6225C91.4218 17.2762 91.3027 16.8811 91.0754 16.4373C90.8589 15.9935 90.5072 15.6093 90.0201 15.2846C89.533 14.9491 88.8836 14.7813 88.0719 14.7813C87.2384 14.7813 86.562 14.9437 86.0424 15.2684C85.5229 15.5823 85.1386 15.9611 84.8897 16.4048C84.6408 16.8378 84.4946 17.2437 84.4513 17.6225H91.4326ZM103.461 26.3897C102.205 26.3897 101.096 26.092 100.132 25.4967C99.169 24.9014 98.4113 24.0734 97.8593 23.0127C97.3181 21.952 97.0475 20.7289 97.0475 19.3435C97.0475 17.958 97.3181 16.735 97.8593 15.6743C98.4113 14.6135 99.169 13.7855 100.132 13.1902C101.096 12.5841 102.205 12.281 103.461 12.281C104.391 12.281 105.219 12.4434 105.945 12.7681C106.67 13.082 107.249 13.45 107.682 13.8721C108.115 14.2942 108.369 14.6677 108.445 14.9924V3.66002H111.919V26H108.494V23.5322C108.342 23.911 108.034 24.3223 107.568 24.7661C107.103 25.2099 106.513 25.5941 105.798 25.9188C105.095 26.2327 104.316 26.3897 103.461 26.3897ZM104.353 23.5809C105.111 23.5809 105.798 23.4023 106.415 23.0451C107.032 22.688 107.525 22.1955 107.893 21.5677C108.261 20.9291 108.445 20.1877 108.445 19.3435C108.445 18.4992 108.261 17.7632 107.893 17.1354C107.525 16.4968 107.032 15.999 106.415 15.6418C105.798 15.2738 105.111 15.0898 104.353 15.0898C103.661 15.0898 103.017 15.2684 102.421 15.6255C101.837 15.9719 101.366 16.4644 101.009 17.103C100.652 17.7416 100.473 18.4884 100.473 19.3435C100.473 20.1985 100.652 20.9454 101.009 21.584C101.366 22.2226 101.837 22.715 102.421 23.0614C103.017 23.4077 103.661 23.5809 104.353 23.5809ZM121.325 26.3897C119.929 26.3897 118.684 26.0866 117.591 25.4805C116.509 24.8635 115.659 24.0301 115.042 22.9802C114.425 21.9195 114.117 20.7181 114.117 19.3759C114.117 18.0338 114.425 16.827 115.042 15.7554C115.659 14.6839 116.509 13.8396 117.591 13.2227C118.684 12.5949 119.929 12.281 121.325 12.281C122.722 12.281 123.955 12.5949 125.027 13.2227C126.099 13.8396 126.937 14.6839 127.544 15.7554C128.16 16.827 128.469 18.0338 128.469 19.3759C128.469 20.7181 128.16 21.9195 127.544 22.9802C126.937 24.0301 126.099 24.8635 125.027 25.4805C123.955 26.0866 122.722 26.3897 121.325 26.3897ZM121.325 23.4673C122.105 23.4673 122.781 23.2887 123.355 22.9315C123.928 22.5743 124.372 22.0873 124.686 21.4703C125 20.8534 125.157 20.1498 125.157 19.3597C125.157 18.5696 125 17.866 124.686 17.2491C124.372 16.6213 123.928 16.1234 123.355 15.7554C122.781 15.3874 122.105 15.2034 121.325 15.2034C120.546 15.2034 119.864 15.3874 119.28 15.7554C118.706 16.1234 118.257 16.6213 117.932 17.2491C117.618 17.866 117.461 18.5696 117.461 19.3597C117.461 20.1498 117.618 20.8534 117.932 21.4703C118.257 22.0873 118.706 22.5743 119.28 22.9315C119.864 23.2887 120.546 23.4673 121.325 23.4673Z" fill="#1F3C36"/>
<path d="M68.9422 37.6215H63.3734V34.5692H77.9366V37.6215H72.3679V56H68.9422V37.6215ZM80.5975 50.1552C80.6191 50.8588 80.7869 51.492 81.1008 52.0548C81.4146 52.6176 81.8746 53.0614 82.4808 53.3861C83.0977 53.7 83.85 53.8569 84.7375 53.8569C85.506 53.8569 86.1662 53.7541 86.7182 53.5484C87.281 53.332 87.7465 53.0776 88.1145 52.7854C88.4825 52.4823 88.7531 52.2009 88.9262 51.9411L90.4686 54.0355C90.1331 54.4901 89.711 54.896 89.2022 55.2532C88.6935 55.6103 88.0603 55.8864 87.3027 56.0812C86.5559 56.2868 85.6304 56.3897 84.5264 56.3897C83.0761 56.3897 81.8151 56.092 80.7436 55.4967C79.672 54.9014 78.8386 54.0626 78.2433 52.9802C77.6588 51.8978 77.3666 50.6315 77.3666 49.1811C77.3666 47.8823 77.6372 46.7133 78.1784 45.6743C78.7196 44.6244 79.5043 43.7964 80.5325 43.1902C81.5716 42.5841 82.8163 42.281 84.2667 42.281C85.6196 42.281 86.794 42.5516 87.7898 43.0928C88.7855 43.634 89.554 44.4133 90.0952 45.4307C90.6472 46.4373 90.9232 47.655 90.9232 49.0837C90.9232 49.1703 90.9178 49.3489 90.907 49.6195C90.907 49.8901 90.8961 50.0686 90.8745 50.1552H80.5975ZM87.6761 47.6225C87.6653 47.2762 87.5462 46.8811 87.3189 46.4373C87.1025 45.9935 86.7507 45.6093 86.2636 45.2846C85.7766 44.9491 85.1271 44.7813 84.3154 44.7813C83.482 44.7813 82.8055 44.9437 82.2859 45.2684C81.7664 45.5823 81.3822 45.9611 81.1332 46.4048C80.8843 46.8378 80.7382 47.2437 80.6949 47.6225H87.6761ZM100.451 53.5809C101.219 53.5809 101.842 53.4564 102.318 53.2075C102.805 52.9477 103.119 52.7583 103.26 52.6393L104.899 55.0746C104.77 55.1828 104.499 55.3452 104.088 55.5616C103.676 55.7673 103.151 55.9567 102.513 56.1299C101.885 56.3031 101.171 56.3897 100.37 56.3897C99.0492 56.3897 97.8478 56.1136 96.7654 55.5616C95.6939 54.9988 94.8334 54.1925 94.184 53.1426C93.5454 52.0818 93.2261 50.8101 93.2261 49.3272C93.2261 47.8336 93.5454 46.5618 94.184 45.5119C94.8334 44.462 95.6939 43.6611 96.7654 43.1091C97.8478 42.557 99.0492 42.281 100.37 42.281C101.16 42.281 101.863 42.373 102.48 42.557C103.108 42.7302 103.628 42.9305 104.039 43.1578C104.45 43.3851 104.726 43.5636 104.867 43.6935L103.195 46.1288C103.119 46.0531 102.962 45.934 102.724 45.7717C102.497 45.5985 102.193 45.4415 101.815 45.3008C101.436 45.1601 100.981 45.0898 100.451 45.0898C99.8015 45.0898 99.1791 45.263 98.5838 45.6093C97.9885 45.9557 97.5014 46.4481 97.1226 47.0867C96.7438 47.7145 96.5544 48.4613 96.5544 49.3272C96.5544 50.1931 96.7438 50.9454 97.1226 51.584C97.5014 52.2226 97.9885 52.715 98.5838 53.0614C99.1791 53.4077 99.8015 53.5809 100.451 53.5809ZM115.533 42.281C116.42 42.281 117.286 42.465 118.13 42.833C118.975 43.2011 119.667 43.7909 120.208 44.6027C120.76 45.4037 121.036 46.4481 121.036 47.7362V56H117.546V48.3693C117.546 47.1679 117.27 46.2858 116.718 45.723C116.177 45.1493 115.457 44.8625 114.558 44.8625C113.963 44.8625 113.39 45.0302 112.838 45.3658C112.286 45.7013 111.831 46.1559 111.474 46.7296C111.127 47.3032 110.954 47.9635 110.954 48.7103V56H107.464V33.66H110.954V44.9112C111.052 44.5432 111.311 44.1589 111.733 43.7585C112.166 43.3472 112.713 43.0008 113.373 42.7194C114.034 42.4272 114.753 42.281 115.533 42.281ZM132.574 42.281C133.472 42.281 134.344 42.465 135.188 42.833C136.032 43.2011 136.725 43.7909 137.266 44.6027C137.818 45.4037 138.094 46.4481 138.094 47.7362V56H134.603V48.3693C134.603 47.1679 134.317 46.2858 133.743 45.723C133.18 45.1493 132.45 44.8625 131.551 44.8625C130.956 44.8625 130.388 45.0302 129.846 45.3658C129.305 45.7013 128.861 46.1559 128.515 46.7296C128.18 47.3032 128.012 47.9635 128.012 48.7103V56H124.537V42.6707H128.012V44.9112C128.109 44.5432 128.369 44.1589 128.791 43.7585C129.224 43.3472 129.771 43.0008 130.431 42.7194C131.091 42.4272 131.806 42.281 132.574 42.281ZM147.915 56.3897C146.519 56.3897 145.274 56.0866 144.181 55.4805C143.099 54.8635 142.249 54.0301 141.632 52.9802C141.015 51.9195 140.707 50.7181 140.707 49.3759C140.707 48.0338 141.015 46.827 141.632 45.7554C142.249 44.6839 143.099 43.8396 144.181 43.2227C145.274 42.5949 146.519 42.281 147.915 42.281C149.311 42.281 150.545 42.5949 151.617 43.2227C152.688 43.8396 153.527 44.6839 154.133 45.7554C154.75 46.827 155.059 48.0338 155.059 49.3759C155.059 50.7181 154.75 51.9195 154.133 52.9802C153.527 54.0301 152.688 54.8635 151.617 55.4805C150.545 56.0866 149.311 56.3897 147.915 56.3897ZM147.915 53.4673C148.695 53.4673 149.371 53.2887 149.945 52.9315C150.518 52.5743 150.962 52.0873 151.276 51.4703C151.59 50.8534 151.747 50.1498 151.747 49.3597C151.747 48.5696 151.59 47.866 151.276 47.2491C150.962 46.6213 150.518 46.1234 149.945 45.7554C149.371 45.3874 148.695 45.2034 147.915 45.2034C147.136 45.2034 146.454 45.3874 145.87 45.7554C145.296 46.1234 144.847 46.6213 144.522 47.2491C144.208 47.866 144.051 48.5696 144.051 49.3597C144.051 50.1498 144.208 50.8534 144.522 51.4703C144.847 52.0873 145.296 52.5743 145.87 52.9315C146.454 53.2887 147.136 53.4673 147.915 53.4673ZM161.532 56H158.042V33.66H161.532V56ZM171.666 56.3897C170.27 56.3897 169.025 56.0866 167.932 55.4805C166.849 54.8635 166 54.0301 165.383 52.9802C164.766 51.9195 164.457 50.7181 164.457 49.3759C164.457 48.0338 164.766 46.827 165.383 45.7554C166 44.6839 166.849 43.8396 167.932 43.2227C169.025 42.5949 170.27 42.281 171.666 42.281C173.062 42.281 174.296 42.5949 175.368 43.2227C176.439 43.8396 177.278 44.6839 177.884 45.7554C178.501 46.827 178.81 48.0338 178.81 49.3759C178.81 50.7181 178.501 51.9195 177.884 52.9802C177.278 54.0301 176.439 54.8635 175.368 55.4805C174.296 56.0866 173.062 56.3897 171.666 56.3897ZM171.666 53.4673C172.445 53.4673 173.122 53.2887 173.695 52.9315C174.269 52.5743 174.713 52.0873 175.027 51.4703C175.341 50.8534 175.497 50.1498 175.497 49.3597C175.497 48.5696 175.341 47.866 175.027 47.2491C174.713 46.6213 174.269 46.1234 173.695 45.7554C173.122 45.3874 172.445 45.2034 171.666 45.2034C170.887 45.2034 170.205 45.3874 169.62 45.7554C169.047 46.1234 168.597 46.6213 168.273 47.2491C167.959 47.866 167.802 48.5696 167.802 49.3597C167.802 50.1498 167.959 50.8534 168.273 51.4703C168.597 52.0873 169.047 52.5743 169.62 52.9315C170.205 53.2887 170.887 53.4673 171.666 53.4673ZM188.303 63.1274C187.285 63.1274 186.338 63.0245 185.461 62.8189C184.596 62.6241 183.822 62.3264 183.14 61.9259C182.458 61.5363 181.906 61.0546 181.484 60.481L183.643 58.3379C183.87 58.6193 184.163 58.9116 184.52 59.2146C184.877 59.5285 185.348 59.7883 185.932 59.9939C186.517 60.2104 187.258 60.3186 188.157 60.3186C189.033 60.3186 189.78 60.14 190.397 59.7829C191.025 59.4257 191.501 58.9332 191.826 58.3054C192.161 57.6885 192.329 56.9741 192.329 56.1624V55.7565H195.739V56.3734C195.739 57.8454 195.408 59.0793 194.748 60.0751C194.088 61.0817 193.195 61.8394 192.069 62.3481C190.944 62.8676 189.688 63.1274 188.303 63.1274ZM192.329 56V53.5322C192.242 53.792 191.994 54.1492 191.582 54.6038C191.182 55.0583 190.63 55.4696 189.926 55.8376C189.234 56.2056 188.411 56.3897 187.458 56.3897C186.214 56.3897 185.093 56.092 184.098 55.4967C183.102 54.9014 182.317 54.0734 181.744 53.0127C181.17 51.952 180.883 50.7289 180.883 49.3435C180.883 47.958 181.17 46.735 181.744 45.6743C182.317 44.6135 183.102 43.7855 184.098 43.1902C185.093 42.5841 186.214 42.281 187.458 42.281C188.389 42.281 189.196 42.4434 189.878 42.7681C190.559 43.0928 191.106 43.4662 191.517 43.8884C191.939 44.3105 192.199 44.6785 192.297 44.9924V42.6707H195.739V56H192.329ZM184.309 49.3435C184.309 50.1985 184.498 50.9454 184.877 51.584C185.256 52.2226 185.748 52.715 186.354 53.0614C186.971 53.4077 187.632 53.5809 188.335 53.5809C189.093 53.5809 189.764 53.4023 190.348 53.0451C190.944 52.688 191.409 52.1955 191.745 51.5677C192.091 50.9291 192.264 50.1877 192.264 49.3435C192.264 48.4992 192.091 47.7632 191.745 47.1354C191.409 46.4968 190.944 45.999 190.348 45.6418C189.764 45.2738 189.093 45.0898 188.335 45.0898C187.632 45.0898 186.971 45.2684 186.354 45.6255C185.748 45.9719 185.256 46.4644 184.877 47.103C184.498 47.7416 184.309 48.4884 184.309 49.3435ZM205.331 52.899L209.552 42.6707H213.011L203.951 62.7539H200.444L203.497 56L197.976 42.6707H201.483L205.331 52.899Z" fill="#1F3C36"/>
<rect y="4" width="11" height="52" fill="#1F3C36"/>
<path d="M19 56V39L51 56H19Z" fill="#1F3C36"/>
<circle cx="34" cy="19" r="15" fill="#FAD320"/>
</svg>
